<mxfile host="app.diagrams.net" modified="2022-02-14T09:07:38.442Z" agent="5.0 (Macintosh; Intel Mac OS X 10_15_7) AppleWebKit/537.36 (KHTML, like Gecko) Chrome/89.0.4389.90 Safari/537.36" etag="1O5T_PTxKTIb7JVQTHU0" version="16.5.6" type="github">
  <diagram id="tW6vDaGJW5mJbFFyRpTi" name="Page-1">
    <mxGraphModel dx="2916" dy="985" grid="1" gridSize="10" guides="1" tooltips="1" connect="1" arrows="1" fold="1" page="1" pageScale="1" pageWidth="850" pageHeight="1100" math="0" shadow="0">
      <root>
        <mxCell id="0" />
        <mxCell id="1" parent="0" />
        <mxCell id="yuxW2dkyoOQb97sbM2LS-1" value="" style="swimlane;startSize=0;" vertex="1" parent="1">
          <mxGeometry x="40" y="90" width="450" height="100" as="geometry" />
        </mxCell>
        <mxCell id="yuxW2dkyoOQb97sbM2LS-2" value="&lt;font style=&quot;font-size: 10px&quot;&gt;int arrivalTime;&lt;br&gt;int serviceTime;&amp;nbsp;&lt;br&gt;int startTime = 0;&lt;br&gt;int endTime = 0;&lt;br&gt;&lt;/font&gt;" style="whiteSpace=wrap;html=1;aspect=fixed;" vertex="1" parent="yuxW2dkyoOQb97sbM2LS-1">
          <mxGeometry x="10" y="10" width="80" height="80" as="geometry" />
        </mxCell>
        <mxCell id="yuxW2dkyoOQb97sbM2LS-3" value="&lt;span style=&quot;font-size: 10px&quot;&gt;int arrivalTime;&lt;/span&gt;&lt;br style=&quot;font-size: 10px&quot;&gt;&lt;span style=&quot;font-size: 10px&quot;&gt;int serviceTime;&lt;/span&gt;&lt;span style=&quot;font-size: 10px&quot;&gt;&amp;nbsp;&lt;/span&gt;&lt;br style=&quot;font-size: 10px&quot;&gt;&lt;span style=&quot;font-size: 10px&quot;&gt;int startTime = 0;&lt;/span&gt;&lt;br style=&quot;font-size: 10px&quot;&gt;&lt;span style=&quot;font-size: 10px&quot;&gt;int endTime = 0;&lt;/span&gt;" style="whiteSpace=wrap;html=1;aspect=fixed;" vertex="1" parent="yuxW2dkyoOQb97sbM2LS-1">
          <mxGeometry x="100" y="10" width="80" height="80" as="geometry" />
        </mxCell>
        <mxCell id="yuxW2dkyoOQb97sbM2LS-4" value="&lt;span style=&quot;font-size: 10px&quot;&gt;int arrivalTime;&lt;/span&gt;&lt;br style=&quot;font-size: 10px&quot;&gt;&lt;span style=&quot;font-size: 10px&quot;&gt;int serviceTime;&lt;/span&gt;&lt;span style=&quot;font-size: 10px&quot;&gt;&amp;nbsp;&lt;/span&gt;&lt;br style=&quot;font-size: 10px&quot;&gt;&lt;span style=&quot;font-size: 10px&quot;&gt;int startTime = 0;&lt;/span&gt;&lt;br style=&quot;font-size: 10px&quot;&gt;&lt;span style=&quot;font-size: 10px&quot;&gt;int endTime = 0;&lt;/span&gt;" style="whiteSpace=wrap;html=1;aspect=fixed;" vertex="1" parent="yuxW2dkyoOQb97sbM2LS-1">
          <mxGeometry x="190" y="10" width="80" height="80" as="geometry" />
        </mxCell>
        <mxCell id="yuxW2dkyoOQb97sbM2LS-5" value="&lt;span style=&quot;font-size: 10px&quot;&gt;int arrivalTime;&lt;/span&gt;&lt;br style=&quot;font-size: 10px&quot;&gt;&lt;span style=&quot;font-size: 10px&quot;&gt;int serviceTime;&lt;/span&gt;&lt;span style=&quot;font-size: 10px&quot;&gt;&amp;nbsp;&lt;/span&gt;&lt;br style=&quot;font-size: 10px&quot;&gt;&lt;span style=&quot;font-size: 10px&quot;&gt;int startTime = 0;&lt;/span&gt;&lt;br style=&quot;font-size: 10px&quot;&gt;&lt;span style=&quot;font-size: 10px&quot;&gt;int endTime = 0;&lt;/span&gt;" style="whiteSpace=wrap;html=1;aspect=fixed;" vertex="1" parent="yuxW2dkyoOQb97sbM2LS-1">
          <mxGeometry x="280" y="10" width="80" height="80" as="geometry" />
        </mxCell>
        <mxCell id="yuxW2dkyoOQb97sbM2LS-6" value="&lt;span style=&quot;font-size: 10px&quot;&gt;int arrivalTime;&lt;/span&gt;&lt;br style=&quot;font-size: 10px&quot;&gt;&lt;span style=&quot;font-size: 10px&quot;&gt;int serviceTime;&lt;/span&gt;&lt;span style=&quot;font-size: 10px&quot;&gt;&amp;nbsp;&lt;/span&gt;&lt;br style=&quot;font-size: 10px&quot;&gt;&lt;span style=&quot;font-size: 10px&quot;&gt;int startTime = 0;&lt;/span&gt;&lt;br style=&quot;font-size: 10px&quot;&gt;&lt;span style=&quot;font-size: 10px&quot;&gt;int endTime = 0;&lt;/span&gt;" style="whiteSpace=wrap;html=1;aspect=fixed;" vertex="1" parent="yuxW2dkyoOQb97sbM2LS-1">
          <mxGeometry x="370" y="10" width="80" height="80" as="geometry" />
        </mxCell>
        <mxCell id="yuxW2dkyoOQb97sbM2LS-7" value="" style="swimlane;startSize=0;" vertex="1" parent="1">
          <mxGeometry x="40" y="380" width="450" height="100" as="geometry" />
        </mxCell>
        <mxCell id="yuxW2dkyoOQb97sbM2LS-8" value="&lt;span style=&quot;font-size: 10px&quot;&gt;int arrivalTime;&lt;/span&gt;&lt;br style=&quot;font-size: 10px&quot;&gt;&lt;span style=&quot;font-size: 10px&quot;&gt;int serviceTime;&amp;nbsp;&lt;/span&gt;&lt;br style=&quot;font-size: 10px&quot;&gt;&lt;span style=&quot;font-size: 10px&quot;&gt;int startTime = 0;&lt;/span&gt;&lt;br style=&quot;font-size: 10px&quot;&gt;&lt;span style=&quot;font-size: 10px&quot;&gt;int endTime = 0;&lt;/span&gt;" style="whiteSpace=wrap;html=1;aspect=fixed;" vertex="1" parent="yuxW2dkyoOQb97sbM2LS-7">
          <mxGeometry x="10" y="10" width="80" height="80" as="geometry" />
        </mxCell>
        <mxCell id="yuxW2dkyoOQb97sbM2LS-9" value="&lt;font style=&quot;font-size: 9px&quot;&gt;start = currenttime&lt;br&gt;end = current + service&lt;br&gt;status = start&lt;/font&gt;" style="whiteSpace=wrap;html=1;aspect=fixed;" vertex="1" parent="1">
          <mxGeometry x="42" y="610" width="80" height="80" as="geometry" />
        </mxCell>
        <mxCell id="yuxW2dkyoOQb97sbM2LS-10" value="" style="endArrow=classic;html=1;rounded=0;fontSize=10;exitX=0.138;exitY=1.05;exitDx=0;exitDy=0;entryX=0.15;entryY=-0.013;entryDx=0;entryDy=0;exitPerimeter=0;entryPerimeter=0;" edge="1" parent="1" source="yuxW2dkyoOQb97sbM2LS-2" target="yuxW2dkyoOQb97sbM2LS-8">
          <mxGeometry width="50" height="50" relative="1" as="geometry">
            <mxPoint x="50" y="190" as="sourcePoint" />
            <mxPoint x="50" y="380" as="targetPoint" />
            <Array as="points" />
          </mxGeometry>
        </mxCell>
        <mxCell id="yuxW2dkyoOQb97sbM2LS-11" value="&lt;div style=&quot;color: rgb(201 , 209 , 217) ; background-color: rgb(13 , 17 , 23) ; font-family: &amp;#34;menlo&amp;#34; , &amp;#34;monaco&amp;#34; , &amp;#34;courier new&amp;#34; , monospace ; font-size: 12px ; line-height: 18px&quot;&gt;&lt;span style=&quot;color: rgb(210 , 168 , 255)&quot;&gt;processArrival&lt;/span&gt;&lt;/div&gt;" style="edgeLabel;html=1;align=center;verticalAlign=middle;resizable=0;points=[];fontSize=14;" vertex="1" connectable="0" parent="yuxW2dkyoOQb97sbM2LS-10">
          <mxGeometry x="-0.1468" y="3" relative="1" as="geometry">
            <mxPoint x="37" y="-42" as="offset" />
          </mxGeometry>
        </mxCell>
        <mxCell id="yuxW2dkyoOQb97sbM2LS-12" value="Front" style="edgeLabel;html=1;align=center;verticalAlign=middle;resizable=0;points=[];fontSize=10;" vertex="1" connectable="0" parent="yuxW2dkyoOQb97sbM2LS-10">
          <mxGeometry x="-0.8571" y="1" relative="1" as="geometry">
            <mxPoint as="offset" />
          </mxGeometry>
        </mxCell>
        <mxCell id="yuxW2dkyoOQb97sbM2LS-13" value="&lt;font style=&quot;font-size: 10px&quot;&gt;Rear&lt;/font&gt;" style="edgeLabel;html=1;align=center;verticalAlign=middle;resizable=0;points=[];fontSize=11;" vertex="1" connectable="0" parent="yuxW2dkyoOQb97sbM2LS-10">
          <mxGeometry x="0.6552" y="2" relative="1" as="geometry">
            <mxPoint as="offset" />
          </mxGeometry>
        </mxCell>
        <mxCell id="yuxW2dkyoOQb97sbM2LS-14" value="&lt;span style=&quot;font-size: 24px&quot;&gt;AQ&lt;/span&gt;" style="text;html=1;align=center;verticalAlign=middle;resizable=0;points=[];autosize=1;strokeColor=none;fillColor=none;fontSize=10;" vertex="1" parent="1">
          <mxGeometry x="-30" y="130" width="50" height="20" as="geometry" />
        </mxCell>
        <mxCell id="yuxW2dkyoOQb97sbM2LS-15" value="WQ" style="text;html=1;align=center;verticalAlign=middle;resizable=0;points=[];autosize=1;strokeColor=none;fillColor=none;fontSize=24;" vertex="1" parent="1">
          <mxGeometry x="-30" y="405" width="60" height="30" as="geometry" />
        </mxCell>
        <mxCell id="yuxW2dkyoOQb97sbM2LS-16" value="&lt;font style=&quot;font-size: 18px&quot;&gt;ServiceNode&lt;/font&gt;" style="text;html=1;align=center;verticalAlign=middle;resizable=0;points=[];autosize=1;strokeColor=none;fillColor=none;fontSize=24;" vertex="1" parent="1">
          <mxGeometry x="-90" y="630" width="120" height="40" as="geometry" />
        </mxCell>
        <mxCell id="yuxW2dkyoOQb97sbM2LS-17" value="" style="endArrow=classic;html=1;rounded=0;fontSize=18;exitX=0.25;exitY=1;exitDx=0;exitDy=0;entryX=0.35;entryY=0.125;entryDx=0;entryDy=0;entryPerimeter=0;" edge="1" parent="1" source="yuxW2dkyoOQb97sbM2LS-8" target="yuxW2dkyoOQb97sbM2LS-9">
          <mxGeometry width="50" height="50" relative="1" as="geometry">
            <mxPoint x="57" y="530" as="sourcePoint" />
            <mxPoint x="107" y="480" as="targetPoint" />
          </mxGeometry>
        </mxCell>
        <mxCell id="yuxW2dkyoOQb97sbM2LS-18" value="Front" style="edgeLabel;html=1;align=center;verticalAlign=middle;resizable=0;points=[];fontSize=11;" vertex="1" connectable="0" parent="yuxW2dkyoOQb97sbM2LS-17">
          <mxGeometry x="-0.5872" relative="1" as="geometry">
            <mxPoint as="offset" />
          </mxGeometry>
        </mxCell>
        <mxCell id="yuxW2dkyoOQb97sbM2LS-19" value="&lt;div style=&quot;font-style: normal; font-weight: normal; letter-spacing: normal; text-indent: 0px; text-transform: none; word-spacing: 0px; text-decoration: none; color: rgb(201, 209, 217); background-color: rgb(13, 17, 23); font-family: menlo, monaco, &amp;quot;courier new&amp;quot;, monospace; font-size: 12px; line-height: 18px;&quot;&gt;&lt;div&gt;&lt;span style=&quot;color: rgb(255 , 123 , 114)&quot;&gt;if&lt;/span&gt;&lt;span style=&quot;color: rgb(201 , 209 , 217)&quot;&gt; (currentTime &lt;/span&gt;&lt;span style=&quot;color: rgb(255 , 123 , 114)&quot;&gt;==&lt;/span&gt;&lt;span style=&quot;color: rgb(201 , 209 , 217)&quot;&gt; newCustomerNode-&amp;gt;customer_data.arrivalTime)&lt;/span&gt;&lt;/div&gt;&lt;/div&gt;" style="text;whiteSpace=wrap;html=1;fontSize=18;" vertex="1" parent="1">
          <mxGeometry x="70" y="240" width="470" height="30" as="geometry" />
        </mxCell>
        <mxCell id="yuxW2dkyoOQb97sbM2LS-20" value="&lt;div style=&quot;font-style: normal; font-weight: normal; letter-spacing: normal; text-indent: 0px; text-transform: none; word-spacing: 0px; text-decoration: none; color: rgb(201, 209, 217); background-color: rgb(13, 17, 23); font-family: menlo, monaco, &amp;quot;courier new&amp;quot;, monospace; font-size: 12px; line-height: 18px;&quot;&gt;&lt;div&gt;&lt;span style=&quot;color: rgb(255 , 123 , 114)&quot;&gt;if&lt;/span&gt;&lt;span style=&quot;color: rgb(201 , 209 , 217)&quot;&gt; ((&lt;/span&gt;&lt;span style=&quot;color: rgb(255 , 123 , 114)&quot;&gt;*&lt;/span&gt;&lt;span style=&quot;color: rgb(201 , 209 , 217)&quot;&gt;currWaitTime) &lt;/span&gt;&lt;span style=&quot;color: rgb(255 , 123 , 114)&quot;&gt;+&lt;/span&gt;&lt;span style=&quot;color: rgb(201 , 209 , 217)&quot;&gt; currentTime &lt;/span&gt;&lt;span style=&quot;color: rgb(255 , 123 , 114)&quot;&gt;&amp;gt;=&lt;/span&gt;&lt;span style=&quot;color: rgb(201 , 209 , 217)&quot;&gt; terminateTime)&lt;/span&gt;&lt;/div&gt;&lt;/div&gt;" style="text;whiteSpace=wrap;html=1;fontSize=18;" vertex="1" parent="1">
          <mxGeometry x="150" y="280" width="390" height="30" as="geometry" />
        </mxCell>
        <mxCell id="yuxW2dkyoOQb97sbM2LS-21" value="&lt;font style=&quot;font-size: 11px&quot;&gt;*currWaitTime: 현재 고객이 기다려야 하는 시간&amp;nbsp;&lt;/font&gt;" style="text;html=1;align=center;verticalAlign=middle;resizable=0;points=[];autosize=1;strokeColor=none;fillColor=none;fontSize=18;" vertex="1" parent="1">
          <mxGeometry x="180" y="210" width="230" height="30" as="geometry" />
        </mxCell>
        <mxCell id="yuxW2dkyoOQb97sbM2LS-22" value="currWaitTime 계산" style="swimlane;fontSize=11;" vertex="1" parent="1">
          <mxGeometry x="640" y="160" width="480" height="210" as="geometry" />
        </mxCell>
        <mxCell id="yuxW2dkyoOQb97sbM2LS-23" value="&lt;br&gt;currWaitTime + currentTime &amp;lt; terminateTime 작을때&lt;br&gt;AQ -&amp;gt; WQ 로 노드 보내면서 *currwaitTime += service&amp;nbsp; 더해준다.&amp;nbsp;" style="text;html=1;align=center;verticalAlign=middle;resizable=0;points=[];autosize=1;strokeColor=none;fillColor=none;fontSize=11;" vertex="1" parent="yuxW2dkyoOQb97sbM2LS-22">
          <mxGeometry y="30" width="320" height="40" as="geometry" />
        </mxCell>
        <mxCell id="yuxW2dkyoOQb97sbM2LS-24" value="&lt;div style=&quot;font-style: normal; font-weight: normal; letter-spacing: normal; text-indent: 0px; text-transform: none; word-spacing: 0px; text-decoration: none; color: rgb(201, 209, 217); background-color: rgb(13, 17, 23); font-family: menlo, monaco, &amp;quot;courier new&amp;quot;, monospace; font-size: 12px; line-height: 18px;&quot;&gt;&lt;div&gt;&lt;span style=&quot;color: rgb(255 , 123 , 114)&quot;&gt;*&lt;/span&gt;&lt;span style=&quot;color: rgb(201 , 209 , 217)&quot;&gt;currWaitTime &lt;/span&gt;&lt;span style=&quot;color: rgb(255 , 123 , 114)&quot;&gt;+=&lt;/span&gt;&lt;span style=&quot;color: rgb(201 , 209 , 217)&quot;&gt; newCustomerNode-&amp;gt;customer_data.serviceTime;&lt;/span&gt;&lt;/div&gt;&lt;/div&gt;" style="text;whiteSpace=wrap;html=1;fontSize=11;" vertex="1" parent="yuxW2dkyoOQb97sbM2LS-22">
          <mxGeometry x="10" y="70" width="460" height="30" as="geometry" />
        </mxCell>
        <mxCell id="yuxW2dkyoOQb97sbM2LS-25" value="&lt;div style=&quot;font-style: normal; font-weight: normal; letter-spacing: normal; text-indent: 0px; text-transform: none; word-spacing: 0px; text-decoration: none; color: rgb(201, 209, 217); background-color: rgb(13, 17, 23); font-family: menlo, monaco, &amp;quot;courier new&amp;quot;, monospace; font-size: 12px; line-height: 18px;&quot;&gt;&lt;div&gt;&lt;span style=&quot;color: rgb(255 , 123 , 114)&quot;&gt;if&lt;/span&gt;&lt;span style=&quot;color: rgb(201 , 209 , 217)&quot;&gt; (currWaitTime &lt;/span&gt;&lt;span style=&quot;color: rgb(255 , 123 , 114)&quot;&gt;&amp;gt;&lt;/span&gt;&lt;span style=&quot;color: rgb(201 , 209 , 217)&quot;&gt; &lt;/span&gt;&lt;span style=&quot;color: rgb(121 , 192 , 255)&quot;&gt;0&lt;/span&gt;&lt;span style=&quot;color: rgb(201 , 209 , 217)&quot;&gt;) currWaitTime&lt;/span&gt;&lt;span style=&quot;color: rgb(255 , 123 , 114)&quot;&gt;--&lt;/span&gt;&lt;span style=&quot;color: rgb(201 , 209 , 217)&quot;&gt;;&lt;/span&gt;&lt;/div&gt;&lt;/div&gt;" style="text;whiteSpace=wrap;html=1;fontSize=11;" vertex="1" parent="yuxW2dkyoOQb97sbM2LS-22">
          <mxGeometry x="10" y="130" width="290" height="30" as="geometry" />
        </mxCell>
        <mxCell id="yuxW2dkyoOQb97sbM2LS-26" value="시간이 지남에 따라 대기 시간 1씩 감소 하는것.&amp;nbsp;&lt;br&gt;대기 시간이 0 일땐 -- 를 하지 않는다." style="text;html=1;align=center;verticalAlign=middle;resizable=0;points=[];autosize=1;strokeColor=none;fillColor=none;fontSize=11;" vertex="1" parent="yuxW2dkyoOQb97sbM2LS-22">
          <mxGeometry x="10" y="100" width="220" height="30" as="geometry" />
        </mxCell>
        <mxCell id="yuxW2dkyoOQb97sbM2LS-27" value="&lt;div style=&quot;color: rgb(201 , 209 , 217) ; background-color: rgb(13 , 17 , 23) ; font-family: &amp;#34;menlo&amp;#34; , &amp;#34;monaco&amp;#34; , &amp;#34;courier new&amp;#34; , monospace ; font-size: 12px ; line-height: 18px&quot;&gt;&lt;span style=&quot;color: rgb(210 , 168 , 255)&quot;&gt;processServiceNodeStart&lt;/span&gt;&lt;/div&gt;" style="text;html=1;align=center;verticalAlign=middle;resizable=0;points=[];autosize=1;strokeColor=none;fillColor=none;fontSize=11;" vertex="1" parent="1">
          <mxGeometry x="90" y="500" width="180" height="20" as="geometry" />
        </mxCell>
        <mxCell id="yuxW2dkyoOQb97sbM2LS-28" value="현재 시간과 도착 시간이 같고 기다려야 하는 시간 + 현재시간 &amp;lt; 종료 시간 즉 (작을때만) AQ -&amp;gt; WQ 로 노드를 보냅니다.&amp;nbsp;" style="text;html=1;align=center;verticalAlign=middle;resizable=0;points=[];autosize=1;strokeColor=none;fillColor=none;fontSize=10;" vertex="1" parent="1">
          <mxGeometry x="100" y="310" width="490" height="20" as="geometry" />
        </mxCell>
        <mxCell id="yuxW2dkyoOQb97sbM2LS-29" value="terminateTime : 5&lt;br&gt;1/3 3/3 3/2&lt;br&gt;&amp;nbsp; &amp;nbsp; &amp;nbsp; &amp;nbsp; 1 2 3 4 5&lt;br&gt;&amp;nbsp; 1 1 1&lt;br&gt;&amp;nbsp; &amp;nbsp; &amp;nbsp; &amp;nbsp; &amp;nbsp; &amp;nbsp; &amp;nbsp; &amp;nbsp; &amp;nbsp;2 2 2&amp;nbsp;&lt;br&gt;&amp;nbsp; &amp;nbsp; &amp;nbsp; &amp;nbsp; &amp;nbsp; &amp;nbsp; &amp;nbsp; &amp;nbsp; &amp;nbsp; &amp;nbsp; &amp;nbsp; &amp;nbsp; &amp;nbsp; &amp;nbsp; 3&amp;nbsp;" style="rounded=0;whiteSpace=wrap;html=1;fontSize=10;" vertex="1" parent="1">
          <mxGeometry x="-170" y="205" width="160" height="100" as="geometry" />
        </mxCell>
        <mxCell id="yuxW2dkyoOQb97sbM2LS-30" value="" style="edgeStyle=orthogonalEdgeStyle;rounded=0;orthogonalLoop=1;jettySize=auto;html=1;fontSize=10;entryX=0.2;entryY=0.667;entryDx=0;entryDy=0;entryPerimeter=0;" edge="1" parent="1" source="yuxW2dkyoOQb97sbM2LS-31" target="yuxW2dkyoOQb97sbM2LS-39">
          <mxGeometry relative="1" as="geometry">
            <mxPoint x="530" y="670" as="targetPoint" />
          </mxGeometry>
        </mxCell>
        <mxCell id="yuxW2dkyoOQb97sbM2LS-31" value="1.ProcessServniceNodeEnd&amp;nbsp; 의 반환값이&amp;nbsp; NULL일때&amp;nbsp;&amp;nbsp;" style="text;html=1;align=center;verticalAlign=middle;resizable=0;points=[];autosize=1;strokeColor=none;fillColor=none;fontSize=10;" vertex="1" parent="1">
          <mxGeometry x="195" y="660" width="250" height="20" as="geometry" />
        </mxCell>
        <mxCell id="yuxW2dkyoOQb97sbM2LS-32" value="&lt;div style=&quot;font-style: normal; font-weight: normal; letter-spacing: normal; text-indent: 0px; text-transform: none; word-spacing: 0px; text-decoration: none; color: rgb(201, 209, 217); background-color: rgb(13, 17, 23); font-family: menlo, monaco, &amp;quot;courier new&amp;quot;, monospace; font-size: 12px; line-height: 18px;&quot;&gt;&lt;div&gt;&lt;span style=&quot;color: rgb(210 , 168 , 255)&quot;&gt;processServiceNodeEnd&lt;/span&gt;&lt;/div&gt;&lt;/div&gt;" style="text;whiteSpace=wrap;html=1;fontSize=10;" vertex="1" parent="1">
          <mxGeometry x="180" y="630" width="180" height="30" as="geometry" />
        </mxCell>
        <mxCell id="yuxW2dkyoOQb97sbM2LS-33" value="&lt;div style=&quot;color: rgb(201 , 209 , 217) ; background-color: rgb(13 , 17 , 23) ; font-family: &amp;#34;menlo&amp;#34; , &amp;#34;monaco&amp;#34; , &amp;#34;courier new&amp;#34; , monospace ; font-size: 12px ; line-height: 18px&quot;&gt;&lt;div&gt;&lt;span style=&quot;color: rgb(255 , 123 , 114)&quot;&gt;if&lt;/span&gt; (pServiceNode-&amp;gt;customer_data.endTime &lt;span style=&quot;color: rgb(255 , 123 , 114)&quot;&gt;!=&lt;/span&gt; currentTime)&lt;/div&gt;&lt;div&gt;&lt;span style=&quot;color: rgb(255 , 123 , 114)&quot;&gt;&lt;span style=&quot;white-space: pre&quot;&gt;	&lt;/span&gt;return&lt;/span&gt; (pServiceNode);&lt;/div&gt;&lt;/div&gt;" style="text;html=1;align=center;verticalAlign=middle;resizable=0;points=[];autosize=1;strokeColor=none;fillColor=none;fontSize=10;" vertex="1" parent="1">
          <mxGeometry x="195" y="745" width="410" height="40" as="geometry" />
        </mxCell>
        <mxCell id="yuxW2dkyoOQb97sbM2LS-34" value="2.ProcessServniceNodeEnd&amp;nbsp; 의 반환값이&amp;nbsp; NULL이 아닐때&amp;nbsp; 즉&lt;br&gt;&amp;nbsp; &amp;nbsp; &amp;nbsp; &amp;nbsp; &amp;nbsp; &amp;nbsp; &amp;nbsp; &amp;nbsp; &amp;nbsp; &amp;nbsp;끝나는 시간과 현재 시간이 다를때 노드를 그대로 반환 (~=서비스 중이다)" style="text;html=1;align=center;verticalAlign=middle;resizable=0;points=[];autosize=1;strokeColor=none;fillColor=none;fontSize=10;" vertex="1" parent="1">
          <mxGeometry x="160" y="715" width="350" height="30" as="geometry" />
        </mxCell>
        <mxCell id="yuxW2dkyoOQb97sbM2LS-35" value="&lt;div style=&quot;font-style: normal ; font-weight: normal ; letter-spacing: normal ; text-indent: 0px ; text-transform: none ; word-spacing: 0px ; text-decoration: none ; color: rgb(201 , 209 , 217) ; background-color: rgb(13 , 17 , 23) ; font-family: &amp;#34;menlo&amp;#34; , &amp;#34;monaco&amp;#34; , &amp;#34;courier new&amp;#34; , monospace ; font-size: 12px ; line-height: 18px&quot;&gt;&lt;div&gt;&lt;span style=&quot;color: rgb(255 , 123 , 114)&quot;&gt;int&lt;/span&gt;&lt;span style=&quot;color: rgb(201 , 209 , 217)&quot;&gt; service &lt;/span&gt;&lt;span style=&quot;color: rgb(255 , 123 , 114)&quot;&gt;=&lt;/span&gt;&lt;span style=&quot;color: rgb(201 , 209 , 217)&quot;&gt; nextCustomerNode-&amp;gt;customer_data.serviceTime;&lt;/span&gt;&lt;/div&gt;&lt;div&gt;&lt;span style=&quot;color: rgb(201 , 209 , 217)&quot;&gt;    nextCustomerNode-&amp;gt;customer_data.startTime &lt;/span&gt;&lt;span style=&quot;color: rgb(255 , 123 , 114)&quot;&gt;=&lt;/span&gt;&lt;span style=&quot;color: rgb(201 , 209 , 217)&quot;&gt; currentTime;&lt;/span&gt;&lt;/div&gt;&lt;div&gt;&lt;span style=&quot;color: rgb(201 , 209 , 217)&quot;&gt;    nextCustomerNode-&amp;gt;customer_data.endTime &lt;/span&gt;&lt;span style=&quot;color: rgb(255 , 123 , 114)&quot;&gt;=&lt;/span&gt;&lt;span style=&quot;color: rgb(201 , 209 , 217)&quot;&gt; currentTime &lt;/span&gt;&lt;span style=&quot;color: rgb(255 , 123 , 114)&quot;&gt;+&lt;/span&gt;&lt;span style=&quot;color: rgb(201 , 209 , 217)&quot;&gt; service;&lt;/span&gt;&lt;/div&gt;&lt;div&gt;&lt;span style=&quot;color: rgb(201 , 209 , 217)&quot;&gt;    nextCustomerNode-&amp;gt;customer_data.status &lt;/span&gt;&lt;span style=&quot;color: rgb(255 , 123 , 114)&quot;&gt;=&lt;/span&gt;&lt;span style=&quot;color: rgb(201 , 209 , 217)&quot;&gt; start;&lt;/span&gt;&lt;/div&gt;&lt;/div&gt;" style="text;whiteSpace=wrap;html=1;fontSize=9;" vertex="1" parent="1">
          <mxGeometry x="130" y="520" width="490" height="110" as="geometry" />
        </mxCell>
        <mxCell id="yuxW2dkyoOQb97sbM2LS-36" value="" style="swimlane;startSize=0;fontSize=9;" vertex="1" parent="1">
          <mxGeometry x="160" y="625" width="930" height="255" as="geometry" />
        </mxCell>
        <mxCell id="yuxW2dkyoOQb97sbM2LS-37" value="서비스가 끝날때마다 고객이 대기 했던 시간을 계속해서 더해준다.&lt;br&gt;고객수도 끝날때마다 더해준다." style="text;html=1;align=center;verticalAlign=middle;resizable=0;points=[];autosize=1;strokeColor=none;fillColor=none;fontSize=9;" vertex="1" parent="yuxW2dkyoOQb97sbM2LS-36">
          <mxGeometry x="530" y="85" width="250" height="30" as="geometry" />
        </mxCell>
        <mxCell id="yuxW2dkyoOQb97sbM2LS-38" value="&lt;span style=&quot;background-color: rgb(13 , 17 , 23) ; color: rgb(201 , 209 , 217) ; font-family: &amp;#34;menlo&amp;#34; , &amp;#34;monaco&amp;#34; , &amp;#34;courier new&amp;#34; , monospace ; font-size: 12px&quot;&gt;&amp;nbsp; &amp;nbsp; &amp;nbsp; &amp;nbsp; &amp;nbsp; &amp;nbsp; &amp;nbsp; &amp;nbsp;&lt;/span&gt;&lt;span style=&quot;background-color: rgb(13 , 17 , 23) ; font-family: &amp;#34;menlo&amp;#34; , &amp;#34;monaco&amp;#34; , &amp;#34;courier new&amp;#34; , monospace ; font-size: 12px ; color: rgb(255 , 123 , 114)&quot;&gt;*&lt;/span&gt;&lt;span style=&quot;background-color: rgb(13 , 17 , 23) ; color: rgb(201 , 209 , 217) ; font-family: &amp;#34;menlo&amp;#34; , &amp;#34;monaco&amp;#34; , &amp;#34;courier new&amp;#34; , monospace ; font-size: 12px&quot;&gt;pTotalWaitTime &lt;/span&gt;&lt;span style=&quot;background-color: rgb(13 , 17 , 23) ; font-family: &amp;#34;menlo&amp;#34; , &amp;#34;monaco&amp;#34; , &amp;#34;courier new&amp;#34; , monospace ; font-size: 12px ; color: rgb(255 , 123 , 114)&quot;&gt;+=&lt;/span&gt;&lt;span style=&quot;background-color: rgb(13 , 17 , 23) ; color: rgb(201 , 209 , 217) ; font-family: &amp;#34;menlo&amp;#34; , &amp;#34;monaco&amp;#34; , &amp;#34;courier new&amp;#34; , monospace ; font-size: 12px&quot;&gt; (start &lt;/span&gt;&lt;span style=&quot;background-color: rgb(13 , 17 , 23) ; font-family: &amp;#34;menlo&amp;#34; , &amp;#34;monaco&amp;#34; , &amp;#34;courier new&amp;#34; , monospace ; font-size: 12px ; color: rgb(255 , 123 , 114)&quot;&gt;-&lt;/span&gt;&lt;span style=&quot;background-color: rgb(13 , 17 , 23) ; color: rgb(201 , 209 , 217) ; font-family: &amp;#34;menlo&amp;#34; , &amp;#34;monaco&amp;#34; , &amp;#34;courier new&amp;#34; , monospace ; font-size: 12px&quot;&gt; arrival);&lt;br&gt;&lt;/span&gt;&lt;span style=&quot;background-color: rgb(13 , 17 , 23) ; color: rgb(201 , 209 , 217) ; font-family: &amp;#34;menlo&amp;#34; , &amp;#34;monaco&amp;#34; , &amp;#34;courier new&amp;#34; , monospace ; font-size: 12px&quot;&gt;(&lt;/span&gt;&lt;span style=&quot;background-color: rgb(13 , 17 , 23) ; font-family: &amp;#34;menlo&amp;#34; , &amp;#34;monaco&amp;#34; , &amp;#34;courier new&amp;#34; , monospace ; font-size: 12px ; color: rgb(255 , 123 , 114)&quot;&gt;*&lt;/span&gt;&lt;span style=&quot;background-color: rgb(13 , 17 , 23) ; color: rgb(201 , 209 , 217) ; font-family: &amp;#34;menlo&amp;#34; , &amp;#34;monaco&amp;#34; , &amp;#34;courier new&amp;#34; , monospace ; font-size: 12px&quot;&gt;pServiceUserCount)&lt;/span&gt;&lt;span style=&quot;background-color: rgb(13 , 17 , 23) ; font-family: &amp;#34;menlo&amp;#34; , &amp;#34;monaco&amp;#34; , &amp;#34;courier new&amp;#34; , monospace ; font-size: 12px ; color: rgb(255 , 123 , 114)&quot;&gt;++&lt;/span&gt;&lt;span style=&quot;background-color: rgb(13 , 17 , 23) ; color: rgb(201 , 209 , 217) ; font-family: &amp;#34;menlo&amp;#34; , &amp;#34;monaco&amp;#34; , &amp;#34;courier new&amp;#34; , monospace ; font-size: 12px&quot;&gt;;&lt;/span&gt;&lt;span style=&quot;background-color: rgb(13 , 17 , 23) ; color: rgb(201 , 209 , 217) ; font-family: &amp;#34;menlo&amp;#34; , &amp;#34;monaco&amp;#34; , &amp;#34;courier new&amp;#34; , monospace ; font-size: 12px&quot;&gt;&lt;br&gt;&lt;/span&gt;" style="text;html=1;align=center;verticalAlign=middle;resizable=0;points=[];autosize=1;strokeColor=none;fillColor=none;fontSize=9;" vertex="1" parent="yuxW2dkyoOQb97sbM2LS-36">
          <mxGeometry x="520" y="115" width="390" height="30" as="geometry" />
        </mxCell>
        <mxCell id="yuxW2dkyoOQb97sbM2LS-39" value="1-1.ServiceNode 가 비어있을때&amp;nbsp;&lt;br&gt;&amp;nbsp; &amp;nbsp; &amp;nbsp; &amp;nbsp; &amp;nbsp; &amp;nbsp; &amp;nbsp; &amp;nbsp; &amp;nbsp; &amp;nbsp;1-2. Servic가 끝난 경우 (free하고 NULL반환)" style="text;html=1;align=center;verticalAlign=middle;resizable=0;points=[];autosize=1;strokeColor=none;fillColor=none;fontSize=10;" vertex="1" parent="yuxW2dkyoOQb97sbM2LS-36">
          <mxGeometry x="460" y="25" width="250" height="30" as="geometry" />
        </mxCell>
        <mxCell id="yuxW2dkyoOQb97sbM2LS-40" value="&lt;div style=&quot;font-style: normal ; font-weight: normal ; letter-spacing: normal ; text-indent: 0px ; text-transform: none ; word-spacing: 0px ; text-decoration: none ; background-color: rgb(13 , 17 , 23) ; font-family: &amp;#34;menlo&amp;#34; , &amp;#34;monaco&amp;#34; , &amp;#34;courier new&amp;#34; , monospace ; font-size: 12px ; line-height: 18px&quot;&gt;&lt;div&gt;&lt;span style=&quot;color: rgb(255 , 123 , 114)&quot;&gt;if&lt;/span&gt;&lt;span style=&quot;color: rgb(201 , 209 , 217)&quot;&gt; (pServiceNode-&amp;gt;customer_data.endTime ==&lt;/span&gt;&lt;span style=&quot;color: rgb(201 , 209 , 217)&quot;&gt;&amp;nbsp;currentTime)&lt;/span&gt;&lt;/div&gt;&lt;/div&gt;" style="text;whiteSpace=wrap;html=1;fontSize=10;" vertex="1" parent="yuxW2dkyoOQb97sbM2LS-36">
          <mxGeometry x="530" y="55" width="420" height="30" as="geometry" />
        </mxCell>
        <mxCell id="yuxW2dkyoOQb97sbM2LS-41" value="ServiceNode != NULL 인 상태로 업무 시간이 마감되는경우" style="swimlane;fontSize=9;" vertex="1" parent="1">
          <mxGeometry x="10" y="920" width="530" height="300" as="geometry" />
        </mxCell>
        <mxCell id="yuxW2dkyoOQb97sbM2LS-42" value="&lt;span style=&quot;font-weight: 700&quot;&gt;고객님이 서비스를 받다가 은행 시간이 종료되는 경우도 WaitTime 이 있으니 TotalWaitTime 에 더해줍니다.&lt;/span&gt;" style="text;html=1;align=center;verticalAlign=middle;resizable=0;points=[];autosize=1;strokeColor=none;fillColor=none;fontSize=9;" vertex="1" parent="yuxW2dkyoOQb97sbM2LS-41">
          <mxGeometry x="30" y="40" width="400" height="20" as="geometry" />
        </mxCell>
        <mxCell id="yuxW2dkyoOQb97sbM2LS-43" value="&lt;div style=&quot;font-style: normal ; font-weight: normal ; letter-spacing: normal ; text-indent: 0px ; text-transform: none ; word-spacing: 0px ; text-decoration: none ; color: rgb(201 , 209 , 217) ; background-color: rgb(13 , 17 , 23) ; font-family: &amp;#34;menlo&amp;#34; , &amp;#34;monaco&amp;#34; , &amp;#34;courier new&amp;#34; , monospace ; font-size: 12px ; line-height: 18px&quot;&gt;&lt;div&gt;&lt;span style=&quot;color: rgb(201 , 209 , 217)&quot;&gt;        &lt;/span&gt;&lt;span style=&quot;color: rgb(255 , 123 , 114)&quot;&gt;if&lt;/span&gt;&lt;span style=&quot;color: rgb(201 , 209 , 217)&quot;&gt; (time &lt;/span&gt;&lt;span style=&quot;color: rgb(255 , 123 , 114)&quot;&gt;&amp;gt;=&lt;/span&gt;&lt;span style=&quot;color: rgb(201 , 209 , 217)&quot;&gt; terminateTime)&lt;/span&gt;&lt;/div&gt;&lt;div&gt;&lt;span style=&quot;color: rgb(201 , 209 , 217)&quot;&gt;        {&lt;/span&gt;&lt;/div&gt;&lt;div&gt;&lt;span style=&quot;color: rgb(255 , 123 , 114)&quot;&gt;&amp;nbsp; if&lt;/span&gt;&lt;span style=&quot;color: rgb(201 , 209 , 217)&quot;&gt; (serviceNode &lt;/span&gt;&lt;span style=&quot;color: rgb(255 , 123 , 114)&quot;&gt;!=&lt;/span&gt;&lt;span style=&quot;color: rgb(201 , 209 , 217)&quot;&gt; &lt;/span&gt;&lt;span style=&quot;color: rgb(121 , 192 , 255)&quot;&gt;NULL&lt;/span&gt;&lt;span style=&quot;color: rgb(201 , 209 , 217)&quot;&gt;)&lt;/span&gt;&lt;/div&gt;&lt;div&gt;&lt;span style=&quot;color: rgb(201 , 209 , 217)&quot;&gt;&amp;nbsp; {&lt;/span&gt;&lt;/div&gt;&lt;div&gt;&lt;span style=&quot;color: rgb(255 , 123 , 114)&quot;&gt;&amp;nbsp; &amp;nbsp; int&lt;/span&gt;&lt;span style=&quot;color: rgb(201 , 209 , 217)&quot;&gt; arrival &lt;/span&gt;&lt;span style=&quot;color: rgb(255 , 123 , 114)&quot;&gt;=&lt;/span&gt;&lt;span style=&quot;color: rgb(201 , 209 , 217)&quot;&gt; serviceNode-&amp;gt;customer_data.arrivalTime;&lt;/span&gt;&lt;/div&gt;&lt;div&gt;&lt;span style=&quot;color: rgb(201 , 209 , 217)&quot;&gt;&lt;/span&gt;&lt;span style=&quot;color: rgb(255 , 123 , 114)&quot;&gt;&amp;nbsp; &amp;nbsp; int&lt;/span&gt;&lt;span style=&quot;color: rgb(201 , 209 , 217)&quot;&gt; start &lt;/span&gt;&lt;span style=&quot;color: rgb(255 , 123 , 114)&quot;&gt;=&lt;/span&gt;&lt;span style=&quot;color: rgb(201 , 209 , 217)&quot;&gt; serviceNode-&amp;gt;customer_data.startTime;&lt;/span&gt;&lt;/div&gt;&lt;div&gt;&lt;span style=&quot;color: rgb(201 , 209 , 217)&quot;&gt;&amp;nbsp; &amp;nbsp; TotalWaitTime &lt;/span&gt;&lt;span style=&quot;color: rgb(255 , 123 , 114)&quot;&gt;+=&lt;/span&gt;&lt;span style=&quot;color: rgb(201 , 209 , 217)&quot;&gt; (start &lt;/span&gt;&lt;span style=&quot;color: rgb(255 , 123 , 114)&quot;&gt;-&lt;/span&gt;&lt;span style=&quot;color: rgb(201 , 209 , 217)&quot;&gt; arrival);&lt;/span&gt;&lt;/div&gt;&lt;div&gt;&lt;span style=&quot;color: rgb(201 , 209 , 217)&quot;&gt;&amp;nbsp; }&lt;/span&gt;&lt;/div&gt;&lt;div&gt;&lt;span style=&quot;color: rgb(201 , 209 , 217)&quot;&gt;&lt;/span&gt;&lt;span style=&quot;color: rgb(210 , 168 , 255)&quot;&gt;&amp;nbsp; free&lt;/span&gt;&lt;span style=&quot;color: rgb(201 , 209 , 217)&quot;&gt;(serviceNode);&lt;/span&gt;&lt;/div&gt;&lt;div&gt;&lt;span style=&quot;color: rgb(201 , 209 , 217)&quot;&gt;&lt;/span&gt;&lt;span style=&quot;color: rgb(255 , 123 , 114)&quot;&gt;&amp;nbsp; break&lt;/span&gt;&lt;span style=&quot;color: rgb(201 , 209 , 217)&quot;&gt;;&lt;/span&gt;&lt;/div&gt;&lt;div&gt;&lt;span style=&quot;color: rgb(201 , 209 , 217)&quot;&gt;        }&lt;/span&gt;&lt;/div&gt;&lt;/div&gt;" style="text;whiteSpace=wrap;html=1;fontSize=9;" vertex="1" parent="yuxW2dkyoOQb97sbM2LS-41">
          <mxGeometry x="30" y="70" width="520" height="255" as="geometry" />
        </mxCell>
      </root>
    </mxGraphModel>
  </diagram>
</mxfile>
